<svg xmlns="http://www.w3.org/2000/svg" width="960" height="760" viewBox="0 0 960 760">
<rect width="960" height="760" fill="#f6f7f5"/>
<text x="40" y="40" font-family="sans-serif" font-size="22">text2IFC · 双竖面板窗 · 部件近景</text>
<polygon points="60.00,627.51 66.80,621.14 84.50,622.91" fill="rgb(64,74,79)" fill-opacity="1.000" stroke="rgb(64,74,79)" stroke-width="0.25"/>
<polygon points="84.50,605.20 84.50,622.91 77.70,629.28" fill="rgb(64,74,79)" fill-opacity="1.000" stroke="rgb(64,74,79)" stroke-width="0.25"/>
<polygon points="77.70,629.28 60.00,627.51 84.50,622.91" fill="rgb(64,74,79)" fill-opacity="1.000" stroke="rgb(64,74,79)" stroke-width="0.25"/>
<polygon points="77.70,611.58 84.50,605.20 77.70,629.28" fill="rgb(64,74,79)" fill-opacity="1.000" stroke="rgb(64,74,79)" stroke-width="0.25"/>
<polygon points="80.76,608.71 81.44,608.07 267.34,626.66" fill="rgb(153,196,212)" fill-opacity="0.550" stroke="rgb(153,196,212)" stroke-width="0.25"/>
<polygon points="84.50,605.20 474.00,644.15 84.50,622.91" fill="rgb(64,74,79)" fill-opacity="1.000" stroke="rgb(64,74,79)" stroke-width="0.25"/>
<polygon points="77.70,629.28 84.50,622.91 474.00,661.86" fill="rgb(64,74,79)" fill-opacity="1.000" stroke="rgb(64,74,79)" stroke-width="0.25"/>
<polygon points="474.00,644.15 84.50,605.20 77.70,611.58" fill="rgb(64,74,79)" fill-opacity="1.000" stroke="rgb(64,74,79)" stroke-width="0.25"/>
<polygon points="266.66,627.30 80.76,608.71 267.34,626.66" fill="rgb(153,196,212)" fill-opacity="0.550" stroke="rgb(153,196,212)" stroke-width="0.25"/>
<polygon points="84.50,91.77 84.50,622.91 66.80,621.14" fill="rgb(64,74,79)" fill-opacity="1.000" stroke="rgb(64,74,79)" stroke-width="0.25"/>
<polygon points="66.80,90.00 66.80,621.14 60.00,627.51" fill="rgb(64,74,79)" fill-opacity="1.000" stroke="rgb(64,74,79)" stroke-width="0.25"/>
<polygon points="77.70,611.58 77.70,629.28 467.20,668.23" fill="rgb(64,74,79)" fill-opacity="1.000" stroke="rgb(64,74,79)" stroke-width="0.25"/>
<polygon points="81.44,112.34 81.44,608.07 80.76,608.71" fill="rgb(153,196,212)" fill-opacity="0.550" stroke="rgb(153,196,212)" stroke-width="0.25"/>
<polygon points="77.70,98.14 77.70,629.28 84.50,622.91" fill="rgb(64,74,79)" fill-opacity="1.000" stroke="rgb(64,74,79)" stroke-width="0.25"/>
<polygon points="263.60,630.16 270.40,623.79 288.11,625.56" fill="rgb(64,74,79)" fill-opacity="1.000" stroke="rgb(64,74,79)" stroke-width="0.25"/>
<polygon points="60.00,96.37 60.00,627.51 77.70,629.28" fill="rgb(64,74,79)" fill-opacity="1.000" stroke="rgb(64,74,79)" stroke-width="0.25"/>
<polygon points="281.31,631.94 263.60,630.16 288.11,625.56" fill="rgb(64,74,79)" fill-opacity="1.000" stroke="rgb(64,74,79)" stroke-width="0.25"/>
<polygon points="474.00,644.15 474.00,661.86 84.50,622.91" fill="rgb(64,74,79)" fill-opacity="1.000" stroke="rgb(64,74,79)" stroke-width="0.25"/>
<polygon points="80.76,112.98 80.76,608.71 266.66,627.30" fill="rgb(153,196,212)" fill-opacity="0.550" stroke="rgb(153,196,212)" stroke-width="0.25"/>
<polygon points="467.20,668.23 77.70,629.28 474.00,661.86" fill="rgb(64,74,79)" fill-opacity="1.000" stroke="rgb(64,74,79)" stroke-width="0.25"/>
<polygon points="284.37,629.07 285.05,628.43 470.94,647.02" fill="rgb(153,196,212)" fill-opacity="0.550" stroke="rgb(153,196,212)" stroke-width="0.25"/>
<polygon points="474.00,644.15 77.70,611.58 467.20,650.53" fill="rgb(64,74,79)" fill-opacity="1.000" stroke="rgb(64,74,79)" stroke-width="0.25"/>
<polygon points="467.20,650.53 77.70,611.58 467.20,668.23" fill="rgb(64,74,79)" fill-opacity="1.000" stroke="rgb(64,74,79)" stroke-width="0.25"/>
<polygon points="267.34,130.93 267.34,626.66 81.44,608.07" fill="rgb(153,196,212)" fill-opacity="0.550" stroke="rgb(153,196,212)" stroke-width="0.25"/>
<polygon points="66.80,90.00 84.50,91.77 66.80,621.14" fill="rgb(64,74,79)" fill-opacity="1.000" stroke="rgb(64,74,79)" stroke-width="0.25"/>
<polygon points="470.26,647.66 284.37,629.07 470.94,647.02" fill="rgb(153,196,212)" fill-opacity="0.550" stroke="rgb(153,196,212)" stroke-width="0.25"/>
<polygon points="288.11,129.84 288.11,625.56 270.40,623.79" fill="rgb(64,74,79)" fill-opacity="1.000" stroke="rgb(64,74,79)" stroke-width="0.25"/>
<polygon points="84.50,91.77 77.70,98.14 84.50,622.91" fill="rgb(64,74,79)" fill-opacity="1.000" stroke="rgb(64,74,79)" stroke-width="0.25"/>
<polygon points="60.00,96.37 66.80,90.00 60.00,627.51" fill="rgb(64,74,79)" fill-opacity="1.000" stroke="rgb(64,74,79)" stroke-width="0.25"/>
<polygon points="80.76,112.98 81.44,112.34 80.76,608.71" fill="rgb(153,196,212)" fill-opacity="0.550" stroke="rgb(153,196,212)" stroke-width="0.25"/>
<polygon points="270.40,128.06 270.40,623.79 263.60,630.16" fill="rgb(64,74,79)" fill-opacity="1.000" stroke="rgb(64,74,79)" stroke-width="0.25"/>
<polygon points="266.66,131.57 266.66,627.30 267.34,626.66" fill="rgb(153,196,212)" fill-opacity="0.550" stroke="rgb(153,196,212)" stroke-width="0.25"/>
<polygon points="467.20,668.23 474.00,661.86 491.71,663.63" fill="rgb(64,74,79)" fill-opacity="1.000" stroke="rgb(64,74,79)" stroke-width="0.25"/>
<polygon points="474.00,644.15 467.20,650.53 474.00,661.86" fill="rgb(64,74,79)" fill-opacity="1.000" stroke="rgb(64,74,79)" stroke-width="0.25"/>
<polygon points="285.05,132.70 285.05,628.43 284.37,629.07" fill="rgb(153,196,212)" fill-opacity="0.550" stroke="rgb(153,196,212)" stroke-width="0.25"/>
<polygon points="77.70,98.14 60.00,96.37 77.70,629.28" fill="rgb(64,74,79)" fill-opacity="1.000" stroke="rgb(64,74,79)" stroke-width="0.25"/>
<polygon points="281.31,136.21 281.31,631.94 288.11,625.56" fill="rgb(64,74,79)" fill-opacity="1.000" stroke="rgb(64,74,79)" stroke-width="0.25"/>
<polygon points="467.20,650.53 467.20,668.23 474.00,661.86" fill="rgb(64,74,79)" fill-opacity="1.000" stroke="rgb(64,74,79)" stroke-width="0.25"/>
<polygon points="484.91,670.00 467.20,668.23 491.71,663.63" fill="rgb(64,74,79)" fill-opacity="1.000" stroke="rgb(64,74,79)" stroke-width="0.25"/>
<polygon points="263.60,134.44 263.60,630.16 281.31,631.94" fill="rgb(64,74,79)" fill-opacity="1.000" stroke="rgb(64,74,79)" stroke-width="0.25"/>
<polygon points="81.44,112.34 267.34,130.93 81.44,608.07" fill="rgb(153,196,212)" fill-opacity="0.550" stroke="rgb(153,196,212)" stroke-width="0.25"/>
<polygon points="284.37,133.34 284.37,629.07 470.26,647.66" fill="rgb(153,196,212)" fill-opacity="0.550" stroke="rgb(153,196,212)" stroke-width="0.25"/>
<polygon points="266.66,131.57 80.76,112.98 266.66,627.30" fill="rgb(153,196,212)" fill-opacity="0.550" stroke="rgb(153,196,212)" stroke-width="0.25"/>
<polygon points="470.94,151.29 470.94,647.02 285.05,628.43" fill="rgb(153,196,212)" fill-opacity="0.550" stroke="rgb(153,196,212)" stroke-width="0.25"/>
<polygon points="270.40,128.06 288.11,129.84 270.40,623.79" fill="rgb(64,74,79)" fill-opacity="1.000" stroke="rgb(64,74,79)" stroke-width="0.25"/>
<polygon points="84.50,91.77 84.50,109.47 77.70,115.85" fill="rgb(64,74,79)" fill-opacity="1.000" stroke="rgb(64,74,79)" stroke-width="0.25"/>
<polygon points="84.50,91.77 66.80,90.00 60.00,96.37" fill="rgb(64,74,79)" fill-opacity="1.000" stroke="rgb(64,74,79)" stroke-width="0.25"/>
<polygon points="267.34,130.93 266.66,131.57 267.34,626.66" fill="rgb(153,196,212)" fill-opacity="0.550" stroke="rgb(153,196,212)" stroke-width="0.25"/>
<polygon points="491.71,132.49 491.71,663.63 474.00,661.86" fill="rgb(64,74,79)" fill-opacity="1.000" stroke="rgb(64,74,79)" stroke-width="0.25"/>
<polygon points="288.11,129.84 281.31,136.21 288.11,625.56" fill="rgb(64,74,79)" fill-opacity="1.000" stroke="rgb(64,74,79)" stroke-width="0.25"/>
<polygon points="77.70,98.14 84.50,91.77 77.70,115.85" fill="rgb(64,74,79)" fill-opacity="1.000" stroke="rgb(64,74,79)" stroke-width="0.25"/>
<polygon points="84.50,91.77 60.00,96.37 77.70,98.14" fill="rgb(64,74,79)" fill-opacity="1.000" stroke="rgb(64,74,79)" stroke-width="0.25"/>
<polygon points="263.60,134.44 270.40,128.06 263.60,630.16" fill="rgb(64,74,79)" fill-opacity="1.000" stroke="rgb(64,74,79)" stroke-width="0.25"/>
<polygon points="474.00,130.72 474.00,661.86 467.20,668.23" fill="rgb(64,74,79)" fill-opacity="1.000" stroke="rgb(64,74,79)" stroke-width="0.25"/>
<polygon points="284.37,133.34 285.05,132.70 284.37,629.07" fill="rgb(153,196,212)" fill-opacity="0.550" stroke="rgb(153,196,212)" stroke-width="0.25"/>
<polygon points="470.26,151.93 470.26,647.66 470.94,647.02" fill="rgb(153,196,212)" fill-opacity="0.550" stroke="rgb(153,196,212)" stroke-width="0.25"/>
<polygon points="281.31,136.21 263.60,134.44 281.31,631.94" fill="rgb(64,74,79)" fill-opacity="1.000" stroke="rgb(64,74,79)" stroke-width="0.25"/>
<polygon points="267.34,130.93 81.44,112.34 80.76,112.98" fill="rgb(153,196,212)" fill-opacity="0.550" stroke="rgb(153,196,212)" stroke-width="0.25"/>
<polygon points="484.91,138.86 484.91,670.00 491.71,663.63" fill="rgb(64,74,79)" fill-opacity="1.000" stroke="rgb(64,74,79)" stroke-width="0.25"/>
<polygon points="467.20,137.09 467.20,668.23 484.91,670.00" fill="rgb(64,74,79)" fill-opacity="1.000" stroke="rgb(64,74,79)" stroke-width="0.25"/>
<polygon points="285.05,132.70 470.94,151.29 285.05,628.43" fill="rgb(153,196,212)" fill-opacity="0.550" stroke="rgb(153,196,212)" stroke-width="0.25"/>
<polygon points="84.50,91.77 474.00,130.72 84.50,109.47" fill="rgb(64,74,79)" fill-opacity="1.000" stroke="rgb(64,74,79)" stroke-width="0.25"/>
<polygon points="77.70,115.85 84.50,109.47 474.00,148.42" fill="rgb(64,74,79)" fill-opacity="1.000" stroke="rgb(64,74,79)" stroke-width="0.25"/>
<polygon points="267.34,130.93 80.76,112.98 266.66,131.57" fill="rgb(153,196,212)" fill-opacity="0.550" stroke="rgb(153,196,212)" stroke-width="0.25"/>
<polygon points="474.00,130.72 84.50,91.77 77.70,98.14" fill="rgb(64,74,79)" fill-opacity="1.000" stroke="rgb(64,74,79)" stroke-width="0.25"/>
<polygon points="470.26,151.93 284.37,133.34 470.26,647.66" fill="rgb(153,196,212)" fill-opacity="0.550" stroke="rgb(153,196,212)" stroke-width="0.25"/>
<polygon points="77.70,98.14 77.70,115.85 467.20,154.80" fill="rgb(64,74,79)" fill-opacity="1.000" stroke="rgb(64,74,79)" stroke-width="0.25"/>
<polygon points="288.11,129.84 270.40,128.06 263.60,134.44" fill="rgb(64,74,79)" fill-opacity="1.000" stroke="rgb(64,74,79)" stroke-width="0.25"/>
<polygon points="474.00,130.72 491.71,132.49 474.00,661.86" fill="rgb(64,74,79)" fill-opacity="1.000" stroke="rgb(64,74,79)" stroke-width="0.25"/>
<polygon points="288.11,129.84 263.60,134.44 281.31,136.21" fill="rgb(64,74,79)" fill-opacity="1.000" stroke="rgb(64,74,79)" stroke-width="0.25"/>
<polygon points="470.94,151.29 470.26,151.93 470.94,647.02" fill="rgb(153,196,212)" fill-opacity="0.550" stroke="rgb(153,196,212)" stroke-width="0.25"/>
<polygon points="491.71,132.49 484.91,138.86 491.71,663.63" fill="rgb(64,74,79)" fill-opacity="1.000" stroke="rgb(64,74,79)" stroke-width="0.25"/>
<polygon points="474.00,130.72 474.00,148.42 84.50,109.47" fill="rgb(64,74,79)" fill-opacity="1.000" stroke="rgb(64,74,79)" stroke-width="0.25"/>
<polygon points="467.20,137.09 474.00,130.72 467.20,668.23" fill="rgb(64,74,79)" fill-opacity="1.000" stroke="rgb(64,74,79)" stroke-width="0.25"/>
<polygon points="470.94,151.29 285.05,132.70 284.37,133.34" fill="rgb(153,196,212)" fill-opacity="0.550" stroke="rgb(153,196,212)" stroke-width="0.25"/>
<polygon points="484.91,138.86 467.20,137.09 484.91,670.00" fill="rgb(64,74,79)" fill-opacity="1.000" stroke="rgb(64,74,79)" stroke-width="0.25"/>
<polygon points="467.20,154.80 77.70,115.85 474.00,148.42" fill="rgb(64,74,79)" fill-opacity="1.000" stroke="rgb(64,74,79)" stroke-width="0.25"/>
<polygon points="474.00,130.72 77.70,98.14 467.20,137.09" fill="rgb(64,74,79)" fill-opacity="1.000" stroke="rgb(64,74,79)" stroke-width="0.25"/>
<polygon points="467.20,137.09 77.70,98.14 467.20,154.80" fill="rgb(64,74,79)" fill-opacity="1.000" stroke="rgb(64,74,79)" stroke-width="0.25"/>
<polygon points="470.94,151.29 284.37,133.34 470.26,151.93" fill="rgb(153,196,212)" fill-opacity="0.550" stroke="rgb(153,196,212)" stroke-width="0.25"/>
<polygon points="474.00,130.72 467.20,137.09 474.00,148.42" fill="rgb(64,74,79)" fill-opacity="1.000" stroke="rgb(64,74,79)" stroke-width="0.25"/>
<polygon points="491.71,132.49 474.00,130.72 467.20,137.09" fill="rgb(64,74,79)" fill-opacity="1.000" stroke="rgb(64,74,79)" stroke-width="0.25"/>
<polygon points="467.20,137.09 467.20,154.80 474.00,148.42" fill="rgb(64,74,79)" fill-opacity="1.000" stroke="rgb(64,74,79)" stroke-width="0.25"/>
<polygon points="491.71,132.49 467.20,137.09 484.91,138.86" fill="rgb(64,74,79)" fill-opacity="1.000" stroke="rgb(64,74,79)" stroke-width="0.25"/>
<text x="40" y="725" font-family="sans-serif" font-size="15">Reopened IFC mesh · fixed orthographic view · offline · pending human review</text></svg>